<svg width="8" height="8" viewBox="0 0 8 8" fill="none" xmlns="http://www.w3.org/2000/svg">
<path d="M6.41198 5.2809L6.52027 1.18252C6.52869 0.990089 6.61229 0.804672 6.75306 0.666206C6.89383 0.52774 7.0805 0.447303 7.27287 0.44222C7.46525 0.437137 7.64793 0.507815 7.78157 0.639031C7.91521 0.770247 7.98912 0.951502 7.98738 1.14376L7.8323 7.01326C7.83003 7.10966 7.80872 7.20567 7.7696 7.29577C7.73047 7.38586 7.67431 7.46827 7.60434 7.53824C7.53437 7.60821 7.45196 7.66438 7.36187 7.7035C7.27177 7.74262 7.17576 7.76393 7.07936 7.7662L1.20986 7.92128C1.01957 7.9202 0.841088 7.84499 0.712173 7.71159C0.58326 7.57818 0.51403 7.39704 0.519131 7.2065C0.524233 7.01595 0.603268 6.83094 0.73951 6.69063C0.875753 6.55031 1.05852 6.46569 1.24913 6.45467L5.3475 6.34639L0.505856 1.50474C0.371902 1.37078 0.299536 1.18621 0.304677 0.991631C0.309818 0.79705 0.392046 0.608396 0.533271 0.467172C0.674496 0.325947 0.86315 0.243719 1.05773 0.238578C1.25231 0.233436 1.43688 0.305803 1.57084 0.439757L6.41198 5.2809Z" fill="#00294C"/>
</svg>
