<svg width="71" height="42" viewBox="0 0 71 42" fill="none" xmlns="http://www.w3.org/2000/svg">
<g opacity="0.25">
<path d="M69.9141 37.9571C69.9141 39.0117 69.0469 39.8321 67.9922 39.8321C66.9609 39.8321 66.1406 39.0117 66.1406 37.9571C66.1406 19.3242 52.125 4.13672 34.9453 4.13672C17.7422 4.13672 3.77344 19.3242 3.77344 37.9571C3.77344 39.0117 2.92969 39.8321 1.89844 39.8321C0.84375 39.8321 0 39.0117 0 37.9571C0 17.2617 15.6797 0.363281 34.9453 0.363281C54.1875 0.363281 69.9141 17.2617 69.9141 37.9571Z" fill="black" fill-opacity="0.425"/>
<path d="M24.5156 16.1606C24.5156 17.1819 24.6443 18.1684 24.8959 19.0987C18.5893 22.8706 14.6719 30.1167 14.6719 37.9809C14.6719 39.0121 13.8047 39.8325 12.7734 39.8325C11.7188 39.8325 10.875 39.0121 10.875 37.9809C10.875 28.1696 16.2477 19.1561 24.5712 15.0186L24.5156 16.1606ZM59.0625 37.9809C59.0625 39.0121 58.1953 39.8325 57.1641 39.8325C56.1328 39.8325 55.2422 39.0121 55.2422 37.9809C55.2422 30.1318 51.3508 22.8984 45.0259 19.1221C45.2873 18.1712 45.4219 17.1612 45.4219 16.1137C45.4219 15.7549 45.4056 15.4011 45.37 15.0542C53.707 19.2059 59.0625 28.1967 59.0625 37.9809Z" fill="black" fill-opacity="0.425"/>
<path d="M34.9688 24.0821C38.8359 24.0821 42.2109 20.6133 42.2109 16.1133C42.2109 11.6602 38.7891 8.33203 34.9688 8.33203C31.0781 8.33203 27.7266 11.7305 27.7266 16.1602C27.7266 20.6133 31.0781 24.0821 34.9688 24.0821ZM23.1328 40.3945H46.7578C48.7266 40.3945 49.9688 39.4571 49.9688 37.8867C49.9688 33.1992 44.1797 26.8477 34.9688 26.8477C25.7109 26.8477 19.9453 33.1992 19.9453 37.8867C19.9453 39.4571 21.1406 40.3945 23.1328 40.3945Z" fill="black" fill-opacity="0.85"/>
</g>
</svg>
