<svg width="60" height="46" viewBox="0 0 60 46" fill="none" xmlns="http://www.w3.org/2000/svg">
<g opacity="0.25">
<path d="M51.5156 18.7227C56.0859 20.6446 58.9219 24.9102 58.9219 29.8321C58.9219 36.2774 53.3906 41.4571 46.3125 41.4571H14.0391C6.02344 41.4571 0 35.668 0 28.7774C0 23.0586 3.30469 18.3243 8.60156 17.4805C8.71875 10.918 15 6.53516 20.7656 8.22266C23.5781 4.1211 28.1016 0.722656 34.4531 0.722656C44.0391 0.722656 51.5625 8.26954 51.5156 18.7227ZM35.7188 14.0352L27.7031 27.418L23.6719 22.1446C23.2266 21.5352 22.6406 21.2071 21.9375 21.2071C20.8828 21.2071 20.0391 22.0508 20.0391 23.1524C20.0391 23.6446 20.2266 24.1133 20.5781 24.5821L25.8281 31.1915C26.3906 31.918 27.0234 32.2461 27.7969 32.2461C28.5703 32.2461 29.2266 31.8711 29.6719 31.168L38.8359 16.2383C39.0703 15.8633 39.375 15.3243 39.375 14.7852C39.375 13.7539 38.4844 12.9805 37.3828 12.9805C36.7266 12.9805 36.0938 13.3789 35.7188 14.0352Z" fill="black" fill-opacity="0.85"/>
</g>
</svg>
