<svg width="61" height="48" viewBox="0 0 61 48" fill="none" xmlns="http://www.w3.org/2000/svg">
<g opacity="0.25">
<path d="M0 35.7774C0 42.3164 5.85938 47.2149 13.0312 47.2149C20.1797 47.2149 26.0156 42.3164 26.0156 35.7774V29.7774C27.1641 29.3321 28.5469 29.0743 29.9297 29.0743C31.4531 29.0743 32.7656 29.2383 33.8203 29.6133V35.7774C33.8203 42.3164 39.6562 47.2149 46.8047 47.2149C53.9531 47.2149 59.8359 42.3164 59.8359 35.7774C59.8359 34.0664 59.5781 32.4727 58.6172 30.2461L48.8906 7.5586C47.5547 4.51172 44.7656 2.73047 41.25 2.73047C36.75 2.73047 33.8203 5.58985 33.8203 9.87891V12.1524C32.6484 11.8477 31.3594 11.6836 29.9297 11.6836C28.5703 11.6836 27.2578 11.8946 26.0156 12.293V9.87891C26.0156 5.58985 23.0859 2.73047 18.5859 2.73047C15.0703 2.73047 12.2578 4.51172 10.9453 7.5586L1.19531 30.2461C0.234375 32.4727 0 34.0664 0 35.7774ZM3.67969 35.7774C3.67969 31.0664 7.73438 27.8555 13.0312 27.8555C18.3047 27.8555 22.5 31.0664 22.5 35.7774C22.5 40.4883 18.3047 43.6993 13.0312 43.6993C7.73438 43.6993 3.67969 40.4883 3.67969 35.7774ZM37.3359 35.7774C37.3359 31.0664 41.5078 27.8555 46.8047 27.8555C52.0781 27.8555 56.1328 31.0664 56.1328 35.7774C56.1328 40.4883 52.0781 43.6993 46.8047 43.6993C41.5078 43.6993 37.3359 40.4883 37.3359 35.7774ZM26.0156 22.629V19.4414C27.2578 19.043 28.5703 18.8555 29.9297 18.8555C31.3594 18.8555 32.6484 18.9961 33.8203 19.3008V22.4414C32.7656 22.0899 31.4766 21.9258 29.9297 21.9258C28.5469 21.9258 27.1641 22.1836 26.0156 22.629Z" fill="black" fill-opacity="0.85"/>
</g>
</svg>
