<svg width="56" height="60" viewBox="0 0 56 60" fill="none" xmlns="http://www.w3.org/2000/svg">
<g opacity="0.25">
<path d="M53.6003 20.5866L33.3241 11.308C31.2116 10.3553 29.4926 9.89962 27.7736 9.94107C26.0753 9.89962 24.3562 10.3553 22.223 11.308L1.96755 20.5866C0.642043 21.1872 0 22.2435 0 23.2997C0 24.356 0.642043 25.3916 1.96755 26.0129L10.5005 29.9066L23.6107 23.7554C23.4864 23.6104 23.4449 23.4447 23.4449 23.2997C23.4449 21.9949 25.6403 21.0008 27.8564 21.0008C30.0932 21.0008 32.2472 21.9949 32.2472 23.2997C32.2472 24.6459 30.0932 25.6608 27.8564 25.6608C27.173 25.6608 26.4895 25.5573 25.8889 25.3916L13.3793 31.2528L22.223 35.3121C24.3562 36.2856 26.0753 36.6998 27.7736 36.6791C29.4926 36.6998 31.2116 36.2856 33.3241 35.3121L53.6003 26.0129C54.9258 25.3916 55.5678 24.356 55.5678 23.2997C55.5678 22.2435 54.9258 21.1872 53.6003 20.5866ZM13.2965 34.318V46.9103C16.776 49.0229 21.7467 50.307 27.7736 50.307C39.9931 50.307 47.8634 45.0671 47.8634 38.8745V31.7499L34.5047 37.8597C32.0815 38.978 29.8861 39.5372 27.7736 39.5166C25.6818 39.5372 23.4657 38.978 21.0425 37.8597L13.2965 34.318ZM7.70453 31.7499V38.8745C7.70453 40.6763 8.74008 42.9131 10.6041 44.8186V33.096L7.70453 31.7499ZM10.6041 51.7153H13.2965V46.9103C12.261 46.289 11.3497 45.5848 10.6041 44.8186V51.7153ZM8.96787 51.8603V57.3074C8.96787 58.9435 10.0242 59.9997 11.6603 59.9997H12.2195C13.8557 59.9997 14.912 58.9435 14.912 57.3074V51.8603C14.912 50.2241 13.8557 49.1679 12.2195 49.1679H11.6603C10.0242 49.1679 8.96787 50.2241 8.96787 51.8603Z" fill="black" fill-opacity="0.85"/>
</g>
</svg>
