<svg width="13" height="13" viewBox="0 0 13 13" fill="none" xmlns="http://www.w3.org/2000/svg">
<g clip-path="url(#clip0_74_2755)">
<path d="M9.4993 0.502497L7.94318 0.5C6.19494 0.5 5.06515 1.65914 5.06515 3.45322V4.81485H3.50054C3.36534 4.81485 3.25586 4.92446 3.25586 5.05966V7.03251C3.25586 7.16771 3.36547 7.27719 3.50054 7.27719H5.06515V12.2553C5.06515 12.3905 5.17463 12.5 5.30983 12.5H7.3512C7.4864 12.5 7.59588 12.3904 7.59588 12.2553V7.27719H9.42527C9.56047 7.27719 9.66995 7.16771 9.66995 7.03251L9.6707 5.05966C9.6707 4.99474 9.64486 4.93257 9.59904 4.88663C9.55323 4.84069 9.49081 4.81485 9.42589 4.81485H7.59588V3.66058C7.59588 3.10579 7.72808 2.82415 8.45078 2.82415L9.49905 2.82377C9.63412 2.82377 9.74361 2.71416 9.74361 2.57909V0.747183C9.74361 0.612231 9.63425 0.502746 9.4993 0.502497Z" fill="#00294C"/>
</g>
<defs>
<clipPath id="clip0_74_2755">
<rect width="12" height="12" fill="white" transform="translate(0.5 0.5)"/>
</clipPath>
</defs>
</svg>
