<svg width="225" height="195" viewBox="0 0 225 195" fill="none" xmlns="http://www.w3.org/2000/svg">
<mask id="mask0_145_460" style="mask-type:alpha" maskUnits="userSpaceOnUse" x="0" y="0" width="309" height="195">
<path d="M0 0L308.952 2.37655L237.655 194.877H0V0Z" fill="#00294C"/>
</mask>
<g mask="url(#mask0_145_460)">
<path fill-rule="evenodd" clip-rule="evenodd" d="M285.089 160.518C164.763 158.914 81.8634 154.528 45.7697 151.741C41.0583 157.508 35.7508 165.943 33.2717 175.859H323.211C328.756 169.522 339.372 151.143 337.47 128.328L306.575 118.822V109.316H323.211V97.4331L261.421 45.1489H225.772V19.0068H187.748V45.1489H133.087L154.476 52.2786H256.668V99.8096C200.423 72.0832 95.0621 26.1365 0 33.2661C0.708086 54.5087 11.5428 102.714 40.9901 134.433C72.2303 137.093 157.357 141.947 285.314 143.653L285.089 160.518ZM83.1773 99.824C91.0525 99.824 97.4366 93.4399 97.4366 85.5647C97.4366 77.6895 91.0525 71.3053 83.1773 71.3053C75.3021 71.3053 68.918 77.6895 68.918 85.5647C68.918 93.4399 75.3021 99.824 83.1773 99.824Z" fill="white"/>
<rect x="187.747" y="57.0254" width="14.2593" height="9.50621" fill="white"/>
<rect x="211.499" y="57.0254" width="14.2593" height="9.50621" fill="white"/>
<path d="M211.499 71.3057H225.758V80.8119L211.499 76.0588V71.3057Z" fill="white"/>
</g>
</svg>
