<svg width="13" height="13" viewBox="0 0 13 13" fill="none" xmlns="http://www.w3.org/2000/svg">
<rect x="0.5" y="0.5" width="12" height="12" rx="3" fill="#00294C"/>
<path d="M9.72219 2.50586C9.51705 2.50586 9.31554 2.58891 9.17067 2.73441C9.02509 2.87921 8.94141 3.0808 8.94141 3.28664C8.94141 3.49184 9.02516 3.69335 9.17067 3.83886C9.31547 3.98366 9.51705 4.06742 9.72219 4.06742C9.92803 4.06742 10.1289 3.98366 10.2744 3.83886C10.4199 3.69335 10.503 3.49177 10.503 3.28664C10.503 3.0808 10.4199 2.87921 10.2744 2.73441C10.1296 2.58891 9.92803 2.50586 9.72219 2.50586Z" fill="white"/>
<circle cx="6.5" cy="6.5" r="3" fill="white"/>
</svg>
