<svg width="13" height="13" viewBox="0 0 13 13" fill="none" xmlns="http://www.w3.org/2000/svg">
<g clip-path="url(#clip0_74_2749)">
<path d="M12.5 7.79683V12.2333H9.92801V8.09396C9.92801 7.05412 9.556 6.34447 8.62503 6.34447C7.91435 6.34447 7.49142 6.82272 7.30536 7.28535C7.23751 7.45074 7.22004 7.68093 7.22004 7.91244V12.2333H4.64719C4.64719 12.2333 4.68184 5.22261 4.64719 4.49625H7.21979V5.59294C7.21457 5.60115 7.20779 5.60999 7.20288 5.61794H7.21979V5.59294C7.56159 5.06651 8.172 4.31448 9.53828 4.31448C11.231 4.31445 12.5 5.4203 12.5 7.79683ZM1.95587 0.766602C1.0757 0.766602 0.5 1.34392 0.5 2.10312C0.5 2.84578 1.05905 3.44062 1.92172 3.44062H1.93891C2.83613 3.44062 3.39411 2.84589 3.39411 2.10312C3.37721 1.34392 2.83613 0.766602 1.95587 0.766602ZM0.652805 12.2333H3.22468V4.49625H0.652805V12.2333Z" fill="#00294C"/>
</g>
<defs>
<clipPath id="clip0_74_2749">
<rect width="12" height="12" fill="white" transform="translate(0.5 0.5)"/>
</clipPath>
</defs>
</svg>
