<svg width="201" height="44" viewBox="0 0 201 44" fill="none" xmlns="http://www.w3.org/2000/svg">
<path d="M53.2188 40.5L64.3478 10.5H198V40.5H53.2188Z" stroke="white"/>
<path d="M166.16 16.9987C166.099 16.7872 166.014 16.6004 165.903 16.4381C165.793 16.273 165.659 16.1339 165.499 16.0209C165.343 15.905 165.163 15.8166 164.96 15.7558C164.76 15.6949 164.539 15.6645 164.295 15.6645C163.841 15.6645 163.441 15.7775 163.096 16.0035C162.754 16.2295 162.488 16.5583 162.296 16.99C162.105 17.4188 162.009 17.9433 162.009 18.5633C162.009 19.1833 162.104 19.7106 162.292 20.1452C162.48 20.5798 162.747 20.9116 163.092 21.1405C163.436 21.3665 163.843 21.4795 164.313 21.4795C164.739 21.4795 165.102 21.4041 165.404 21.2535C165.708 21.0999 165.94 20.884 166.099 20.6059C166.261 20.3278 166.342 19.9989 166.342 19.6194L166.725 19.6759H164.43V18.2591H168.155V19.3803C168.155 20.1626 167.99 20.8348 167.659 21.3969C167.329 21.9561 166.874 22.3878 166.295 22.692C165.715 22.9933 165.052 23.144 164.304 23.144C163.47 23.144 162.737 22.96 162.105 22.592C161.473 22.2212 160.981 21.6953 160.627 21.0144C160.277 20.3307 160.102 19.5194 160.102 18.5807C160.102 17.8592 160.206 17.216 160.414 16.6511C160.626 16.0832 160.922 15.6022 161.301 15.2082C161.681 14.8141 162.122 14.5143 162.627 14.3086C163.131 14.1029 163.677 14 164.265 14C164.769 14 165.239 14.0739 165.673 14.2216C166.108 14.3665 166.493 14.5722 166.829 14.8388C167.168 15.1053 167.445 15.4226 167.659 15.7905C167.874 16.1556 168.011 16.5583 168.072 16.9987H166.16Z" fill="white"/>
<path d="M158.679 14.125V23.0256H157.054L153.181 17.4236H153.116V23.0256H151.234V14.125H152.886L156.728 19.7226H156.806V14.125H158.679Z" fill="white"/>
<path d="M149.671 14.125V23.0256H147.789V14.125H149.671Z" fill="white"/>
<path d="M139.844 23.0256V14.125H143.355C144.03 14.125 144.606 14.2539 145.081 14.5118C145.556 14.7668 145.918 15.1217 146.167 15.5766C146.419 16.0285 146.545 16.5501 146.545 17.1411C146.545 17.7322 146.418 18.2537 146.163 18.7057C145.908 19.1577 145.538 19.5097 145.055 19.7618C144.574 20.0138 143.991 20.1399 143.308 20.1399H141.069V18.6318H143.003C143.365 18.6318 143.664 18.5695 143.899 18.4449C144.136 18.3174 144.313 18.1421 144.429 17.9191C144.548 17.6931 144.607 17.4337 144.607 17.1411C144.607 16.8456 144.548 16.5877 144.429 16.3675C144.313 16.1444 144.136 15.972 143.899 15.8504C143.661 15.7258 143.36 15.6635 142.995 15.6635H141.726V23.0256H139.844Z" fill="white"/>
<path d="M131.906 23.0256V14.125H135.418C136.093 14.125 136.668 14.2539 137.143 14.5118C137.618 14.7668 137.98 15.1217 138.23 15.5766C138.482 16.0285 138.608 16.5501 138.608 17.1411C138.608 17.7322 138.48 18.2537 138.225 18.7057C137.97 19.1577 137.601 19.5097 137.117 19.7618C136.636 20.0138 136.054 20.1399 135.37 20.1399H133.132V18.6318H135.066C135.428 18.6318 135.726 18.5695 135.961 18.4449C136.199 18.3174 136.375 18.1421 136.491 17.9191C136.61 17.6931 136.669 17.4337 136.669 17.1411C136.669 16.8456 136.61 16.5877 136.491 16.3675C136.375 16.1444 136.199 15.972 135.961 15.8504C135.723 15.7258 135.422 15.6635 135.057 15.6635H133.788V23.0256H131.906Z" fill="white"/>
<path d="M130.335 14.125V23.0256H128.453V14.125H130.335Z" fill="white"/>
<path d="M119.305 23.0256V14.125H121.187V17.7974H125.007V14.125H126.884V23.0256H125.007V19.3489H121.187V23.0256H119.305Z" fill="white"/>
<path d="M116.1 16.6815C116.065 16.3309 115.916 16.0586 115.652 15.8644C115.388 15.6703 115.03 15.5732 114.579 15.5732C114.271 15.5732 114.012 15.6167 113.801 15.7036C113.589 15.7877 113.427 15.905 113.314 16.0557C113.204 16.2063 113.149 16.3773 113.149 16.5685C113.143 16.7278 113.176 16.8669 113.249 16.9857C113.324 17.1045 113.427 17.2073 113.557 17.2943C113.688 17.3783 113.838 17.4522 114.009 17.5159C114.18 17.5767 114.363 17.6289 114.557 17.6724L115.356 17.8636C115.745 17.9505 116.101 18.0664 116.426 18.2113C116.75 18.3561 117.031 18.5343 117.269 18.7458C117.506 18.9573 117.69 19.2065 117.821 19.4933C117.954 19.7802 118.022 20.109 118.025 20.4799C118.022 21.0246 117.883 21.4968 117.608 21.8967C117.335 22.2936 116.941 22.6022 116.426 22.8224C115.913 23.0397 115.294 23.1483 114.57 23.1483C113.851 23.1483 113.225 23.0382 112.692 22.818C112.162 22.5978 111.748 22.2719 111.449 21.8402C111.154 21.4056 110.999 20.8681 110.984 20.2278H112.805C112.826 20.5262 112.911 20.7754 113.062 20.9753C113.215 21.1723 113.42 21.3215 113.675 21.423C113.932 21.5215 114.224 21.5707 114.548 21.5707C114.867 21.5707 115.143 21.5244 115.378 21.4316C115.616 21.3389 115.8 21.21 115.93 21.0448C116.06 20.8797 116.126 20.6899 116.126 20.4755C116.126 20.2756 116.066 20.1076 115.947 19.9714C115.832 19.8352 115.661 19.7193 115.435 19.6237C115.212 19.5281 114.938 19.4412 114.613 19.363L113.644 19.1196C112.894 18.937 112.301 18.6517 111.867 18.2634C111.432 17.8752 111.216 17.3522 111.219 16.6945C111.216 16.1556 111.36 15.6848 111.649 15.2821C111.942 14.8793 112.343 14.565 112.853 14.339C113.363 14.113 113.943 14 114.592 14C115.252 14 115.829 14.113 116.321 14.339C116.817 14.565 117.202 14.8793 117.477 15.2821C117.753 15.6848 117.894 16.1513 117.903 16.6815H116.1Z" fill="white"/>
<path d="M106.851 14.125V23.0256H104.969V14.125H106.851Z" fill="white"/>
<path d="M99.2021 23.0256H96.0469V14.125H99.2281C100.123 14.125 100.894 14.3032 101.54 14.6596C102.186 15.013 102.683 15.5215 103.031 16.185C103.381 16.8485 103.557 17.6424 103.557 18.5666C103.557 19.4937 103.381 20.2905 103.031 20.9569C102.683 21.6233 102.183 22.1347 101.532 22.491C100.883 22.8474 100.106 23.0256 99.2021 23.0256ZM97.9287 21.4132H99.1238C99.6801 21.4132 100.148 21.3147 100.528 21.1177C100.91 20.9178 101.197 20.6092 101.388 20.192C101.582 19.7719 101.679 19.2301 101.679 18.5666C101.679 17.9089 101.582 17.3715 101.388 16.9542C101.197 16.537 100.911 16.2299 100.532 16.0329C100.152 15.8359 99.6845 15.7374 99.1282 15.7374H97.9287V21.4132Z" fill="white"/>
<path d="M88.4072 23.0256H86.3906L89.4632 14.125H91.8883L94.9566 23.0256H92.94L90.7105 16.1589H90.641L88.4072 23.0256ZM88.2811 19.5271H93.0443V20.996H88.2811V19.5271Z" fill="white"/>
<path d="M75.6562 14.125H77.977L80.4281 20.1051H80.5325L82.9836 14.125H85.3043V23.0256H83.479V17.2324H83.4052L81.1018 22.9821H79.8588L77.5554 17.2107H77.4816V23.0256H75.6562V14.125Z" fill="white"/>
<path d="M68.0165 23.0256H66L69.0726 14.125H71.4977L74.5659 23.0256H72.5494L70.3199 16.1589H70.2504L68.0165 23.0256ZM67.8905 19.5271H72.6537V20.996H67.8905V19.5271Z" fill="white"/>
<path d="M160.711 36.4448V25.1562H168.317V27.124H163.098V29.8139H167.926V31.7817H163.098V34.477H168.34V36.4448H160.711Z" fill="white"/>
<path d="M150.214 36.4448V35.0282L155.847 27.124H150.203V25.1562H158.846V26.5728L153.207 34.477H158.857V36.4448H150.214Z" fill="white"/>
<path d="M141.234 36.4448V25.1562H148.709V27.124H143.621V29.8139H148.213V31.7817H143.621V36.4448H141.234Z" fill="white"/>
<path d="M133.277 28.8033C133.2 28.535 133.092 28.298 132.952 28.0922C132.813 27.8828 132.642 27.7064 132.44 27.5631C132.241 27.4161 132.013 27.304 131.756 27.2268C131.503 27.1497 131.221 27.1111 130.913 27.1111C130.336 27.1111 129.829 27.2544 129.392 27.541C128.958 27.8276 128.62 28.2447 128.377 28.7922C128.135 29.3361 128.014 30.0012 128.014 30.7876C128.014 31.574 128.133 32.2428 128.372 32.794C128.611 33.3451 128.949 33.7659 129.386 34.0562C129.823 34.3428 130.34 34.4861 130.935 34.4861C131.475 34.4861 131.936 34.3906 132.318 34.1995C132.704 34.0047 132.998 33.731 133.2 33.3782C133.406 33.0255 133.509 32.6084 133.509 32.127L133.994 32.1987H131.084V30.4017H135.807V31.8238C135.807 32.816 135.598 33.6685 135.179 34.3814C134.76 35.0906 134.183 35.6381 133.448 36.024C132.713 36.4061 131.872 36.5972 130.924 36.5972C129.866 36.5972 128.936 36.3639 128.135 35.8972C127.334 35.4268 126.709 34.7599 126.261 33.8963C125.816 33.0291 125.594 32.0002 125.594 30.8096C125.594 29.8946 125.726 29.0789 125.991 28.3623C126.259 27.6421 126.634 27.0321 127.115 26.5323C127.596 26.0326 128.157 25.6523 128.796 25.3914C129.436 25.1305 130.128 25 130.874 25C131.514 25 132.109 25.0937 132.66 25.2811C133.211 25.4648 133.7 25.7257 134.126 26.0638C134.556 26.4019 134.907 26.8043 135.179 27.2709C135.451 27.7339 135.626 28.2447 135.703 28.8033H133.277Z" fill="white"/>
<path d="M123.794 25.1562V36.4448H121.732L116.821 29.3398H116.738V36.4448H114.352V25.1562H116.446L121.319 32.2557H121.418V25.1562H123.794Z" fill="white"/>
<path d="M112.363 25.1562V36.4448H109.977V25.1562H112.363Z" fill="white"/>
<path d="M102.666 36.4448H98.6641V25.1562H102.699C103.834 25.1562 104.812 25.3822 105.631 25.8342C106.451 26.2825 107.081 26.9274 107.522 27.7689C107.966 28.6104 108.189 29.6173 108.189 30.7895C108.189 31.9654 107.966 32.9759 107.522 33.8211C107.081 34.6663 106.447 35.3148 105.62 35.7668C104.797 36.2188 103.812 36.4448 102.666 36.4448ZM101.051 34.3999H102.567C103.272 34.3999 103.866 34.2749 104.347 34.025C104.832 33.7715 105.196 33.3801 105.438 32.851C105.684 32.3182 105.808 31.631 105.808 30.7895C105.808 29.9554 105.684 29.2737 105.438 28.7446C105.196 28.2154 104.834 27.8259 104.352 27.576C103.871 27.3261 103.278 27.2012 102.572 27.2012H101.051V34.3999Z" fill="white"/>
<path d="M88.9716 36.4448H86.4141L90.311 25.1562H93.3867L97.2782 36.4448H94.7206L91.893 27.7359H91.8048L88.9716 36.4448ZM88.8118 32.0077H94.8529V33.8707H88.8118V32.0077Z" fill="white"/>
<path d="M76.8203 36.4448V25.1562H81.274C82.1265 25.1562 82.8541 25.3087 83.4567 25.6137C84.0631 25.9151 84.5242 26.3432 84.8403 26.898C85.1599 27.4492 85.3198 28.0978 85.3198 28.8438C85.3198 29.5934 85.1581 30.2383 84.8347 30.7785C84.5114 31.315 84.0429 31.7265 83.4292 32.0132C82.8192 32.2998 82.0806 32.4431 81.2134 32.4431H78.2314V30.5249H80.8275C81.2832 30.5249 81.6617 30.4625 81.963 30.3375C82.2643 30.2126 82.4885 30.0252 82.6355 29.7753C82.7861 29.5254 82.8615 29.2149 82.8615 28.8438C82.8615 28.469 82.7861 28.1529 82.6355 27.8957C82.4885 27.6385 82.2625 27.4437 81.9575 27.3114C81.6562 27.1755 81.2758 27.1075 80.8165 27.1075H79.207V36.4448H76.8203ZM82.9166 31.3076L85.7222 36.4448H83.0874L80.3425 31.3076H82.9166Z" fill="white"/>
<path d="M66 27.124V25.1562H75.2712V27.124H71.8151V36.4448H69.456V27.124H66Z" fill="white"/>
<path d="M181.324 36C179.813 36 178.509 35.7352 177.411 35.2057C176.313 34.6762 175.468 33.9585 174.877 33.0527C174.292 32.14 174 31.1227 174 30.0009C174 29.1648 174.171 28.4228 174.513 27.7748C174.855 27.1268 175.333 26.5311 175.946 25.9876C176.559 25.4372 177.272 24.8903 178.084 24.3468L182.329 21.619C182.878 21.2776 183.281 20.9188 183.537 20.5425C183.794 20.1593 183.922 19.7447 183.922 19.2988C183.922 18.8738 183.748 18.4801 183.398 18.1178C183.049 17.7555 182.554 17.5778 181.912 17.5848C181.485 17.5848 181.114 17.6789 180.8 17.867C180.487 18.0481 180.241 18.2885 180.062 18.5881C179.891 18.8808 179.806 19.2082 179.806 19.5705C179.806 20.0165 179.934 20.4694 180.191 20.9292C180.447 21.3891 180.79 21.8768 181.217 22.3924C181.645 22.901 182.112 23.4515 182.618 24.0437L193 35.6865H188.253L179.592 26.2594C179.022 25.6253 178.452 24.9634 177.881 24.2736C177.318 23.5769 176.848 22.8383 176.47 22.058C176.092 21.2706 175.903 20.4171 175.903 19.4974C175.903 18.4592 176.149 17.5256 176.641 16.6964C177.14 15.8673 177.838 15.2124 178.737 14.7316C179.635 14.2439 180.683 14 181.88 14C183.049 14 184.058 14.2334 184.906 14.7002C185.761 15.1601 186.417 15.7732 186.873 16.5397C187.337 17.2991 187.568 18.1352 187.568 19.048C187.568 20.0583 187.312 20.9745 186.799 21.7967C186.292 22.6119 185.58 23.3435 184.66 23.9914L180.191 27.1373C179.585 27.5693 179.136 28.0117 178.844 28.4646C178.558 28.9105 178.416 29.339 178.416 29.7501C178.416 30.2587 178.544 30.7151 178.801 31.1192C179.057 31.5234 179.421 31.8439 179.891 32.0808C180.362 32.3107 180.914 32.4256 181.549 32.4256C182.319 32.4256 183.078 32.2549 183.826 31.9135C184.582 31.5652 185.266 31.0739 185.879 30.4399C186.499 29.7989 186.995 29.0394 187.365 28.1615C187.736 27.2836 187.921 26.3116 187.921 25.2456H191.696C191.696 26.5555 191.549 27.7365 191.257 28.7886C190.965 29.8337 190.559 30.7465 190.038 31.5268C189.518 32.3002 188.923 32.9343 188.253 33.429C188.039 33.5614 187.832 33.6868 187.633 33.8052C187.433 33.9237 187.226 34.0491 187.012 34.1815C186.2 34.8225 185.291 35.2858 184.286 35.5715C183.288 35.8572 182.301 36 181.324 36Z" fill="white"/>
<mask id="mask0_74_2774" style="mask-type:alpha" maskUnits="userSpaceOnUse" x="0" y="0" width="65" height="41">
<path d="M0 0L65 0.5L50 41H0V0Z" fill="#00294C"/>
</mask>
<g mask="url(#mask0_74_2774)">
<path fill-rule="evenodd" clip-rule="evenodd" d="M59.9867 32.9999C32.5545 32.6341 16.3776 31.6832 10.3268 31.1364C9.22305 32.2857 7.64976 34.401 7 37H68C69.1667 35.6667 71.4 31.8 71 27L64.5 25V23H68V20.5L55 9.5H47.5V4H39.5V9.5H28L32.5 11H54V21C42.1667 15.1667 20 5.5 0 7C0.154654 11.6396 2.60541 22.3926 9.34972 29.0321C14.1283 29.538 30.5346 30.607 60.0133 31.0001L59.9867 32.9999ZM17.5 21C19.1569 21 20.5 19.6569 20.5 18C20.5 16.3431 19.1569 15 17.5 15C15.8431 15 14.5 16.3431 14.5 18C14.5 19.6569 15.8431 21 17.5 21Z" fill="white"/>
<rect x="39.5" y="12" width="3" height="2" fill="white"/>
<rect x="44.5" y="12" width="3" height="2" fill="white"/>
<rect x="49.5" y="12" width="3" height="2" fill="white"/>
<rect x="49.5" y="15" width="3" height="2" fill="white"/>
<path d="M44.5 15H47.5V17L44.5 16V15Z" fill="white"/>
</g>
<path d="M57 43H200.5V8H68.5" stroke="white"/>
</svg>
